<?xml version="1.0" encoding="utf-8"?>
<!-- Generator: Adobe Illustrator 16.0.2, SVG Export Plug-In . SVG Version: 6.00 Build 0)  -->
<!DOCTYPE svg PUBLIC "-//W3C//DTD SVG 1.1//EN" "http://www.w3.org/Graphics/SVG/1.1/DTD/svg11.dtd">
<svg version="1.1" id="svg_21" xmlns="http://www.w3.org/2000/svg" xmlns:xlink="http://www.w3.org/1999/xlink" x="0px" y="0px"
	 width="100px" height="97.699px" viewBox="0 0 100 97.699" enable-background="new 0 0 100 97.699" xml:space="preserve">
<g id="svg_11" transform="matrix(1,0,0,1,772.5,366.5) ">
	<rect id="svg_12" x="-753" y="-350.1" fill="none" width="63" height="63"/>
	<g id="svg_1">
		<desc>Created with Snap</desc>
		<g id="svg_14">
		</g>
		<g id="svg_15">
		</g>
		<g id="svg_16">
		</g>
		<g id="svg_17">
			
				<linearGradient id="svg_18_1_" gradientUnits="userSpaceOnUse" x1="-1037.3511" y1="79.4143" x2="-1036.3511" y2="79.4143" gradientTransform="matrix(53.2 0 0 -53.2 54439.0625 3907.3743)">
				<stop  offset="0" style="stop-color:#000000"/>
				<stop  offset="1" style="stop-color:#000000"/>
			</linearGradient>
			<path id="svg_18" fill="url(#svg_18_1_)" d="M-721.4-344.1c-14.7,0-26.6,11.898-26.6,26.6c0,14.7,11.9,26.6,26.6,26.6
				c14.699,0,26.6-11.9,26.6-26.6C-694.8-332.201-706.8-344.1-721.4-344.1z M-701.4-302.4l-7.9-8c0.6-1.1,1.1-2.299,1.4-3.5h11.301
				C-697.201-309.699-698.9-305.801-701.4-302.4z M-714.4-305.4l7.9,8c-3.301,2.5-7.201,4.1-11.4,4.701V-304
				C-716.599-304.301-715.4-304.801-714.4-305.4L-714.4-305.4z M-721.4-305.099c-6.801,0-12.401-5.6-12.401-12.401
				c0-6.801,5.5-12.4,12.401-12.4c6.9,0,12.4,5.6,12.4,12.4C-709-310.699-714.599-305.099-721.4-305.099z M-725-304v11.301
				c-4.301-0.602-8.201-2.301-11.5-4.801l8-8C-727.4-304.801-726.201-304.301-725-304L-725-304z M-746.201-314h11.301
				c0.301,1.199,0.801,2.4,1.4,3.5l-8,8C-744-305.801-745.6-309.699-746.201-314L-746.201-314z M-741.4-332.6l7.9,8
				c-0.6,1.1-1.1,2.199-1.5,3.5h-11.201C-745.6-325.401-743.9-329.301-741.4-332.6z M-735.301-319.5
				c-0.1,0.699-0.199,1.401-0.199,2.1c0,0.702,0,1.301,0.1,1.901h-11c0-0.6-0.1-1.301-0.1-1.901c0-0.699,0-1.4,0.1-2.1H-735.301z
				 M-728.4-329.6l-7.9-8c3.301-2.4,7.201-4.102,11.4-4.701V-331C-726.201-330.701-727.4-330.201-728.4-329.6z M-717.9-331v-11.301
				c4.301,0.6,8.199,2.301,11.6,4.801l-8.1,7.9C-715.5-330.201-716.701-330.701-717.9-331z M-696.599-321.1H-707.9
				c-0.301-1.201-0.801-2.4-1.4-3.4l8.1-7.801C-698.9-329.1-697.3-325.301-696.599-321.1z M-707.599-315.5
				c0.1-0.6,0.1-1.301,0.1-1.901c0-0.699-0.1-1.4-0.201-2.1h11.102c0.1,0.699,0.1,1.401,0.1,2.1c0,0.702,0,1.301-0.1,1.901H-707.599
				z M-702.3-333.6l-8,7.699c-0.799-1.1-1.799-2-2.799-2.801l8-7.799C-704.099-335.6-703.099-334.6-702.3-333.6z M-719.4-342.5v11.1
				c-0.699-0.1-1.301-0.1-2-0.1s-1.301,0.1-2,0.1v-11.1c0.7-0.1,1.301-0.1,2-0.1C-720.8-342.5-720.099-342.5-719.4-342.5z
				 M-737.6-336.6l7.799,7.898c-1.1,0.801-2,1.701-2.799,2.801l-7.801-7.9C-739.6-334.801-738.6-335.801-737.6-336.6z
				 M-740.5-301.301l7.9-7.898c0.799,1.1,1.799,2,2.799,2.799l-7.9,7.9C-738.701-299.301-739.701-300.301-740.5-301.301z
				 M-723.4-292.5v-11.1c0.7,0.1,1.301,0.1,2,0.1s1.301-0.1,2-0.1v11.1c-0.699,0.1-1.301,0.1-2,0.1S-722.8-292.5-723.4-292.5z
				 M-705.201-298.4l-7.799-7.9c1.1-0.799,2-1.799,2.799-2.799l7.801,7.9C-703.3-300.199-704.201-299.301-705.201-298.4z"/>
		</g>
	</g>
</g>
<g id="svg_19" transform="matrix(1,0,0,1,755,348.5) ">
	<g id="svg_2">
		<desc>Created with Snap</desc>
		<g id="svg_22">
		</g>
		<g id="svg_23">
		</g>
		<g id="svg_24">
		</g>
		<g id="svg_25">
			
				<linearGradient id="svg_26_1_" gradientUnits="userSpaceOnUse" x1="-745.1812" y1="-272.6785" x2="-744.1812" y2="-272.6785" gradientTransform="matrix(90 0 0 -87.7 66317.3594 -24214.582)">
				<stop  offset="0" style="stop-color:#000000"/>
				<stop  offset="1" style="stop-color:#000000"/>
			</linearGradient>
			<path id="svg_26" fill="url(#svg_26_1_)" d="M-663.3-304.75c-0.6,0-1.199,0.1-1.699,0.4c-0.4-2-2.101-3.5-4.2-3.5
				c-0.8,0-1.601,0.199-2.2,0.6c-1-5-3.2-9.6-6.2-13.5c1.601-0.6,2.7-2.199,2.7-4c0-2.4-1.9-4.3-4.3-4.3c-1.7,0-3.3,1.101-3.9,2.601
				c-4-3.201-8.8-5.601-14-6.701c0.101-0.299,0.101-0.699,0.101-1.1c0-2.1-1.5-3.8-3.5-4.199c0.199-0.5,0.399-1.101,0.399-1.701
				c0-2.399-1.899-4.299-4.3-4.299s-4.3,1.899-4.3,4.299c0,0.601,0.1,1.201,0.399,1.701c-2,0.399-3.5,2.1-3.5,4.199
				c0,0.4,0.101,0.801,0.2,1.2c-5.1,1.2-9.7,3.5-13.6,6.7c-0.8-1.301-2.3-2.2-4-2.2c-2.4,0-4.3,1.899-4.3,4.3c0,1.7,1,3.2,2.6,3.9
				c-2.8,3.8-4.9,8.199-5.9,13c-0.6-0.301-1.3-0.5-2-0.5c-2.1,0-3.8,1.5-4.199,3.5c-0.5-0.2-1.101-0.4-1.7-0.4
				c-2.4,0-4.3,1.9-4.3,4.301c0,2.399,1.899,4.299,4.3,4.299c0.6,0,1.2-0.1,1.7-0.399c0.399,2,2.1,3.5,4.199,3.5
				c0.7,0,1.4-0.2,2-0.5c1.101,5.101,3.301,9.7,6.301,13.601c-1.4,0.699-2.301,2.199-2.301,3.799c0,2.4,1.9,4.301,4.301,4.301
				c1.6,0,3-0.9,3.8-2.301c3.8,3,8.3,5.201,13.3,6.301c-0.1,0.3-0.1,0.6-0.1,0.9c0,2.1,1.5,3.799,3.5,4.199
				c-0.2,0.5-0.4,1.1-0.4,1.7c0,2.399,1.9,4.3,4.3,4.3c2.4,0,4.3-1.9,4.3-4.3c0-0.601-0.1-1.2-0.399-1.7c2-0.4,3.5-2.1,3.5-4.199
				c0-0.301,0-0.601-0.101-0.9c4.9-1.1,9.4-3.301,13.2-6.301c0.7,1.4,2.2,2.301,3.8,2.301c2.4,0,4.301-1.9,4.301-4.301
				c0-1.6-0.9-3-2.301-3.799c3.101-4,5.301-8.601,6.4-13.701c0.7,0.4,1.4,0.601,2.2,0.601c2.1,0,3.8-1.5,4.2-3.5
				c0.5,0.2,1.1,0.399,1.699,0.399c2.4,0,4.301-1.899,4.301-4.299C-659-302.75-660.9-304.75-663.3-304.75z M-671-305.65
				c0.5-0.399,1.1-0.699,1.8-0.699c1.5,0,2.7,1.199,2.7,2.699c0,0.101,0,0.201,0,0.4c-0.301,0.4-0.7,1-0.9,1.7
				c-0.1,0.101-0.3,0.2-0.4,0.3h-2.899c0-1.5-0.2-2.9-0.4-4.3C-671.1-305.55-671.1-305.55-671-305.65z M-704.1-268.65
				c-17.6,0-31.899-14.199-31.899-31.799c0-17.601,14.3-31.801,31.8-31.801s31.8,14.301,31.8,31.801S-686.6-268.65-704.1-268.65z
				 M-681.9-325.449c0.3-1.201,1.4-2,2.6-2c1.5,0,2.7,1.199,2.7,2.699c0,1.301-0.899,2.4-2.1,2.6h-0.101
				c-1-1.199-2-2.199-3.199-3.299C-681.9-325.349-681.9-325.349-681.9-325.449z M-698.6-334.15c0,0.301,0,0.5-0.1,0.801
				c-1.601-0.301-3.3-0.4-5-0.4v-1.699c0.1-0.201,0.2-0.4,0.399-0.5c0.4-0.201,1.101-0.5,1.601-0.9
				C-700.1-337.05-698.6-335.75-698.6-334.15z M-704.5-342.75c1.5,0,2.699,1.2,2.699,2.7c0,0.7-0.3,1.399-0.8,1.899
				c-0.3,0.201-0.899,0.601-1.5,0.801c-0.3,0.1-0.7,0.1-1,0l0,0l0,0c-0.3,0-0.899-0.4-1.3-0.801c-0.5-0.5-0.8-1.199-0.8-1.899
				C-707.2-341.55-706-342.75-704.5-342.75z M-710.3-334.15c0-1.6,1.4-2.899,3.101-2.699c0.399,0.3,1,0.699,1.7,0.9
				c0.1,0.1,0.199,0.299,0.3,0.399v1.7c-1.7,0.1-3.3,0.199-4.9,0.5C-710.3-333.55-710.3-333.849-710.3-334.15z M-731.9-324.349
				c0-1.5,1.2-2.7,2.7-2.7c1.2,0,2.2,0.8,2.6,1.899c-1.2,1.101-2.3,2.201-3.3,3.5C-731.1-321.949-731.9-323.05-731.9-324.349z
				 M-738.8-306.349c0.601,0,1.2,0.199,1.601,0.6c0,0,0,0,0.1,0c-0.2,1.5-0.399,3-0.399,4.5h-2.601c-0.2-0.1-0.399-0.199-0.5-0.4
				l-0.8-1.5c0-0.1,0-0.299,0-0.399C-741.5-305.15-740.3-306.349-738.8-306.349z M-747.4-300.449c0-1.5,1.2-2.701,2.7-2.701
				c0.7,0,1.399,0.301,1.899,0.701l0.801,1.5c0,0.1,0,0.299,0,0.399c0,0.2,0,0.3-0.101,0.5c-0.1,0.3-0.3,1.101-0.7,1.3
				c0,0,0,0-0.1,0l0,0c-0.5,0.5-1.2,0.801-1.9,0.801C-746.2-297.75-747.4-298.949-747.4-300.449z M-737.2-295.15
				c-0.5,0.4-1.101,0.601-1.601,0.601c-1.5,0-2.699-1.2-2.699-2.7c0-0.1,0-0.199,0-0.3c0.5-0.5,0.8-1.3,0.899-1.7
				c0.101-0.1,0.3-0.199,0.5-0.3h2.601C-737.5-298.15-737.3-296.65-737.2-295.15C-737.1-295.25-737.1-295.25-737.2-295.15z
				 M-728.5-273.449c-1.5,0-2.7-1.201-2.7-2.701c0-1.1,0.7-2.1,1.7-2.5c1.1,1.301,2.3,2.4,3.5,3.5
				C-726.3-274.15-727.3-273.449-728.5-273.449z M-710-266.949c0-0.201,0-0.4,0.1-0.601c1.6,0.3,3.3,0.399,5,0.5v1.5
				c-0.1,0.2-0.2,0.3-0.3,0.5c-0.7,0.3-1.3,0.7-1.601,0.8C-708.5-264.05-710-265.349-710-266.949z M-704.1-258.349
				c-1.5,0-2.7-1.2-2.7-2.7c0-0.7,0.301-1.399,0.801-1.899c0.199-0.101,0.8-0.5,1.5-0.801c0.3-0.1,0.6-0.1,0.899,0
				c0.5,0.1,1.2,0.4,1.4,0.7l0,0l0,0c0.5,0.5,0.8,1.2,0.8,1.899C-701.4-259.55-702.6-258.349-704.1-258.349z M-698.2-266.949
				c0,1.6-1.4,2.899-3,2.699c-0.5-0.5-1.3-0.8-1.7-0.9c-0.1-0.199-0.3-0.299-0.4-0.5v-1.399c1.7,0,3.4-0.2,5-0.5
				C-698.3-267.349-698.2-267.15-698.2-266.949L-698.2-266.949z M-677.1-276.15c0,1.5-1.2,2.701-2.7,2.701
				c-1.1,0-2.1-0.701-2.5-1.701c1.301-1.1,2.4-2.299,3.5-3.5C-677.8-278.25-677.1-277.25-677.1-276.15z M-669.2-294.55
				c-0.7,0-1.3-0.2-1.8-0.7c0,0-0.101,0-0.101-0.1c0.2-1.4,0.3-2.9,0.4-4.301h2.899c0.2,0.101,0.301,0.201,0.5,0.301
				c0.2,0.4,0.5,1.199,0.9,1.699c0,0.101,0,0.201,0,0.301C-666.5-295.75-667.7-294.55-669.2-294.55z M-663.3-297.75
				c-0.699,0-1.399-0.3-1.899-0.8l0,0l0,0c-0.101-0.101-0.5-0.8-0.7-1.399c0-0.201,0-0.301,0-0.5c0-0.201,0-0.301,0.1-0.5l0,0l0,0
				c0-0.301,0.4-0.9,0.801-1.301c0.5-0.5,1.199-0.8,1.899-0.8c1.5,0,2.7,1.2,2.7,2.7C-660.6-298.949-661.8-297.75-663.3-297.75z"/>
		</g>
	</g>
</g>
</svg>
